<?xml version="1.0" encoding="utf-8"?>
<!-- Generator: Adobe Illustrator 18.1.0, SVG Export Plug-In . SVG Version: 6.00 Build 0)  -->
<!DOCTYPE svg PUBLIC "-//W3C//DTD SVG 1.1//EN" "http://www.w3.org/Graphics/SVG/1.1/DTD/svg11.dtd">
<svg version="1.1" id="Layer_1" xmlns="http://www.w3.org/2000/svg" xmlns:xlink="http://www.w3.org/1999/xlink" x="0px" y="0px"
	 viewBox="0 0 98.5 60" enable-background="new 0 0 98.5 60" xml:space="preserve">
<g id="FUKyrM_1_">
	<g>
		<path fill="#FFFFFF" d="M49.4,42c-2.9-2-4.3-4.5-3.3-8c0.4-1.3,0.6-2.7,0.9-4c1-5.2,0-9.9-3.2-14.2c-3.4-4.4-7.6-8.1-12.7-10.4
			C22.8,1.8,14.8,2.3,7.8,8.2c-7.2,6.1-9.5,14.2-6.5,23.1c3.3,9.6,10.6,15.5,20.1,18.1c3,0.8,6.6-0.2,9.8-0.8
			c1.9-0.3,3.6-1.5,5.5-2.2c2.2-0.9,4.3-0.8,6.4,1.2c-1.7,1.1-3.1,2.1-4.7,3c-4,2.5-4.1,3.7-0.9,7.2c0.4,0.4,0.9,0.8,1.3,1.2
			c1.2,1.2,2.3,1.2,3.5-0.2c1.8-2,3.8-3.8,5.6-5.7c1.1-1.1,1.9-1.2,3,0c1.3,1.4,2.6,2.7,3.9,4.1c2.9,3.1,3.8,3.1,6.6-0.3
			c0.4-0.5,0.7-1,1-1.5c1.2-1.8,1.1-3.2-1.1-4.4c-1.9-1-3.7-2.3-5.5-3.4c0.1-0.4,0.2-0.8,0.3-1.2c1.8,0,3.6-0.3,5.3,0.1
			c1.7,0.4,3.4,1.3,5,2.1c4.8,2.1,9.5,2.1,14.3-0.1c4.9-2.3,9.2-5.5,12.5-9.8c9.5-11.9,5.1-28.9-8.7-34c-12.2-4.5-30,5-33,17.7
			c-0.4,1.7-0.5,3.6-0.4,5.4c0.2,2,0.6,4.1,1.1,6.1C53.2,37.3,52.6,40,49.4,42z M54.2,4.5c0-2.6-2.1-4.5-4.7-4.5
			c-2.5,0.1-4.4,2-4.4,4.5c0,2.6,2,4.6,4.6,4.6C52.2,9.1,54.2,7,54.2,4.5z"/>
		<path d="M49.4,42c3.1-2,3.7-4.8,3-8c-0.5-2-1-4-1.1-6.1c-0.1-1.8,0-3.7,0.4-5.4c3-12.7,20.7-22.2,33-17.7
			c13.9,5.1,18.3,22.1,8.7,34c-3.4,4.2-7.6,7.5-12.5,9.8c-4.7,2.2-9.5,2.2-14.3,0.1c-1.7-0.7-3.3-1.7-5-2.1
			c-1.7-0.4-3.6-0.1-5.3-0.1c-0.1,0.4-0.2,0.8-0.3,1.2c1.8,1.2,3.6,2.4,5.5,3.4c2.2,1.1,2.3,2.5,1.1,4.4c-0.3,0.5-0.6,1-1,1.5
			c-2.8,3.4-3.6,3.4-6.6,0.3c-1.3-1.4-2.7-2.7-3.9-4.1c-1-1.2-1.9-1.1-3,0c-1.8,1.9-3.8,3.7-5.6,5.7c-1.2,1.3-2.3,1.3-3.5,0.2
			c-0.4-0.4-0.9-0.8-1.3-1.2c-3.3-3.5-3.1-4.7,0.9-7.2c1.5-0.9,3-1.9,4.7-3c-2.1-2-4.2-2.1-6.4-1.2c-1.8,0.7-3.6,1.9-5.5,2.2
			c-3.2,0.6-6.8,1.6-9.8,0.8c-9.5-2.7-16.8-8.5-20.1-18.1c-3.1-9-0.7-17,6.5-23.1c7-5.9,15-6.4,23.3-2.7c5.1,2.3,9.3,5.9,12.7,10.4
			C47,20.1,48,24.8,47,30c-0.3,1.4-0.5,2.7-0.9,4C45.2,37.5,46.5,40.1,49.4,42z M40.4,58.4c1-1.1,1.6-2.1,2.4-2.8
			c3.7-3.2,7.3-6.5,11.2-9.4c3.4-2.6,7.1-2.8,10.9-0.5c1,0.6,2.2,0.9,3.2,1.4c0.1-0.2,0.2-0.3,0.3-0.5c-4.8-5.9-9.7-11.9-14.5-17.8
			c-0.2,0.1-0.4,0.2-0.6,0.3c0.4,2.1,0.8,4.2,1.2,6.3c0.5,2.6,0.1,5-2.1,6.8c-4.3,3.4-8.6,6.8-12.9,10.2c-0.7,0.6-1.5,1-2.6,1.7
			C38.2,55.5,39.1,56.7,40.4,58.4z M30.2,46.3c0.2,0.2,0.3,0.4,0.5,0.5c1.3-0.6,2.6-1.2,3.9-1.9c2.8-1.5,5.7-1.7,8.3,0
			c2.3,1.5,3.5,0.5,5-1.6c-6.8-3.8-3.1-9.6-3.3-15C39.8,34.3,35,40.3,30.2,46.3z M51.7,50.4c2.3,2.4,4.5,4.7,6.9,7.2
			c0.9-1.2,1.9-2.5,3-4c-2.1-1.3-4-2.2-5.6-3.5C54.2,48.7,52.9,48.9,51.7,50.4z"/>
		<path d="M54.2,4.5c0,2.5-2,4.6-4.5,4.6c-2.5,0-4.6-2.1-4.6-4.6C45.1,2,47,0.1,49.5,0C52.1-0.1,54.1,1.9,54.2,4.5z"/>
		<path fill="#FFFFFF" d="M40.4,58.4c-1.3-1.6-2.2-2.9-3.4-4.4c1.1-0.7,1.9-1.1,2.6-1.7c4.3-3.4,8.6-6.8,12.9-10.2
			c2.2-1.8,2.6-4.1,2.1-6.8c-0.4-2.1-0.8-4.2-1.2-6.3c0.2-0.1,0.4-0.2,0.6-0.3c4.8,5.9,9.7,11.9,14.5,17.8c-0.1,0.2-0.2,0.3-0.3,0.5
			c-1.1-0.5-2.2-0.8-3.2-1.4c-3.8-2.3-7.5-2-10.9,0.5c-3.9,3-7.5,6.2-11.2,9.4C42,56.3,41.4,57.2,40.4,58.4z"/>
		<path fill="#FFFFFF" d="M30.2,46.3c4.8-6,9.7-11.9,14.5-17.9c0.1,5.4-3.5,11.2,3.3,15c-1.5,2.1-2.7,3.1-5,1.6
			c-2.7-1.7-5.5-1.6-8.3,0c-1.3,0.7-2.6,1.2-3.9,1.9C30.5,46.6,30.3,46.4,30.2,46.3z"/>
		<path fill="#FFFFFF" d="M51.7,50.4c1.2-1.5,2.5-1.7,4.3-0.2c1.6,1.3,3.4,2.2,5.6,3.5c-1.1,1.5-2.1,2.8-3,4
			C56.1,55.1,54,52.8,51.7,50.4z"/>
	</g>
</g>
</svg>
